<svg width="72" height="72" viewBox="0 0 72 72" fill="none" xmlns="http://www.w3.org/2000/svg">
<g filter="url(#filter0_d_402_6846)">
<path d="M36 59C50.3594 59 62 47.3594 62 33C62 18.6406 50.3594 7 36 7C21.6406 7 10 18.6406 10 33C10 47.3594 21.6406 59 36 59Z" fill="url(#paint0_linear_402_6846)"/>
</g>
<rect x="10" y="7" width="52" height="52" rx="20" fill="url(#paint1_linear_402_6846)"/>
<path d="M44.8284 25.4034L43.0895 24.6385V35.2132C43.0895 35.9142 42.8783 36.5576 42.5181 37.0906C41.9179 37.979 40.9143 38.5601 39.767 38.5746H35.4067C34.0814 38.5746 33.0057 37.4988 33.0057 36.1736L34.4463 33.0459C34.4463 32.5657 34.4463 32.8126 34.4463 32.8126H25.3224V33.773L22.4411 36.2411L21.9609 36.6542L22.6909 37.3842L22.7586 37.4662C23.743 36.6639 25.0684 36.1745 26.5234 36.1745C29.5774 36.1745 32.0457 38.3258 32.0457 40.9766H42.6117C43.1399 40.9766 43.6251 40.8373 44.0523 40.5923C44.0331 39.531 46.7166 37.1502 47.2639 37.1359L44.8284 25.4034Z" fill="white"/>
<path d="M25.3219 33.7729L22.4407 36.241V34.7334L25.3219 33.7729Z" fill="#ED5565"/>
<path d="M40.0744 24.1879C40.3288 24.1112 40.5977 24.2601 40.6697 24.5145C40.7466 24.7692 40.6024 25.0332 40.348 25.1101C40.0936 25.1868 39.8247 25.0379 39.7478 24.7835C39.6758 24.5291 39.8197 24.2653 40.0744 24.1879Z" fill="#656D78"/>
<path d="M40.6697 24.5145C40.5977 24.2605 40.3287 24.1112 40.0743 24.1879L42.1827 23.5686C42.1492 23.679 42.13 23.8038 42.13 23.9288C42.13 24.1496 42.1877 24.356 42.2932 24.5337L40.3484 25.11C40.6024 25.0331 40.7466 24.7691 40.6697 24.5145Z" fill="#545C66"/>
<path d="M35.1661 32.3237V29.4458C35.1661 29.3133 35.0585 29.2057 34.926 29.2057H34.4463C34.3138 29.2057 34.2062 29.3133 34.2062 29.4458C34.2062 29.5778 34.0981 29.6859 33.966 29.6859H25.3219C24.9247 29.6859 24.6016 30.009 24.6016 30.4062V32.3266C24.6016 32.7238 24.9247 33.0469 25.3219 33.0469C25.3228 33.0469 25.3233 33.0464 25.3242 33.0464H34.4463C34.8435 33.0464 35.1666 32.7233 35.1666 32.3261C35.1666 32.3252 35.1661 32.3247 35.1661 32.3237Z" fill="#656D78"/>
<path d="M30.3649 40.9761C30.3649 43.0981 28.6445 44.8187 26.5223 44.8187C24.4 44.8187 22.6797 43.0981 22.6797 40.9761C22.6797 38.8539 24.4 37.1333 26.5223 37.1333C28.6445 37.1333 30.3649 38.8539 30.3649 40.9761Z" fill="#656D78"/>
<path d="M28.4432 40.9761C28.4432 42.0369 27.5832 42.8969 26.5224 42.8969C25.4616 42.8969 24.6016 42.0369 24.6016 40.9761C24.6016 39.9151 25.4616 39.0553 26.5224 39.0553C27.5832 39.0553 28.4432 39.9151 28.4432 40.9761Z" fill="#E6E9ED"/>
<path d="M50.7733 40.9756C50.7733 43.0976 49.053 44.8182 46.9307 44.8182C44.8085 44.8182 43.0881 43.0976 43.0881 40.9756C43.0881 38.8534 44.8085 37.1328 46.9307 37.1328C49.053 37.1328 50.7733 38.8534 50.7733 40.9756Z" fill="#656D78"/>
<path d="M48.8514 40.9756C48.8514 42.0364 47.9914 42.8965 46.9306 42.8965C45.8698 42.8965 45.0098 42.0364 45.0098 40.9756C45.0098 39.9146 45.8698 39.0548 46.9306 39.0548C47.9914 39.0548 48.8514 39.9146 48.8514 40.9756Z" fill="#E6E9ED"/>
<path d="M46.1247 22.079C46.0701 22.0338 45.9986 22.015 45.9285 22.027L44.7871 22.2335C42.9445 22.5548 42.9108 22.5663 42.8916 22.5731C42.5626 22.6788 42.2875 22.8938 42.1117 23.182C42.1021 23.1925 42.0939 23.2045 42.0864 23.2165C41.9673 23.4167 41.9004 23.6498 41.8922 23.8932C41.8903 23.9046 41.8894 23.9171 41.8894 23.9293V23.9368V23.9445C41.8894 23.9565 41.8903 23.9687 41.8922 23.9801C41.9009 24.2235 41.9673 24.4568 42.0864 24.6571C42.0934 24.6688 42.1016 24.6803 42.1107 24.6908C42.2866 24.9795 42.5621 25.195 42.8883 25.2998C42.9108 25.3073 42.9445 25.319 44.7856 25.6402L45.9285 25.8466C45.9423 25.8491 45.9573 25.8506 45.9712 25.8506C46.027 25.8506 46.0811 25.8309 46.1247 25.7947C46.1796 25.7493 46.2113 25.682 46.2113 25.6105V22.2633C46.2113 22.1918 46.1801 22.1245 46.1247 22.079Z" fill="#E6E9ED"/>
<path d="M24.6016 30.6462V31.1264H35.1661V30.6462H24.6016Z" fill="#545C66"/>
<path d="M26.5224 35.4537C23.4721 35.4537 21 37.9258 21 40.9761H32.0447C32.0447 37.9263 29.5727 35.4537 26.5224 35.4537Z" fill="#ED5565"/>
<path d="M45.293 37.0254C43.088 37.9383 42.0406 40.4675 42.9539 42.6721L50.9399 39.3643C50.0259 37.1593 47.4978 36.1119 45.293 37.0254Z" fill="#ED5565"/>
<defs>
<filter id="filter0_d_402_6846" x="0" y="0" width="72" height="72" filterUnits="userSpaceOnUse" color-interpolation-filters="sRGB">
<feFlood flood-opacity="0" result="BackgroundImageFix"/>
<feColorMatrix in="SourceAlpha" type="matrix" values="0 0 0 0 0 0 0 0 0 0 0 0 0 0 0 0 0 0 127 0" result="hardAlpha"/>
<feOffset dy="3"/>
<feGaussianBlur stdDeviation="5"/>
<feColorMatrix type="matrix" values="0 0 0 0 0.972549 0 0 0 0 0.635294 0 0 0 0 0.00392157 0 0 0 0.3 0"/>
<feBlend mode="normal" in2="BackgroundImageFix" result="effect1_dropShadow_402_6846"/>
<feBlend mode="normal" in="SourceGraphic" in2="effect1_dropShadow_402_6846" result="shape"/>
</filter>
<linearGradient id="paint0_linear_402_6846" x1="10" y1="7" x2="10" y2="59" gradientUnits="userSpaceOnUse">
<stop stop-color="#FBD275"/>
<stop offset="1" stop-color="#F8A200"/>
</linearGradient>
<linearGradient id="paint1_linear_402_6846" x1="10" y1="7" x2="10" y2="59" gradientUnits="userSpaceOnUse">
<stop stop-color="#FBD275"/>
<stop offset="1" stop-color="#F8A200"/>
</linearGradient>
</defs>
</svg>
