<svg width="72" height="72" viewBox="0 0 72 72" fill="none" xmlns="http://www.w3.org/2000/svg">
<g filter="url(#filter0_d_402_6874)">
<path d="M36 59C50.3594 59 62 47.3594 62 33C62 18.6406 50.3594 7 36 7C21.6406 7 10 18.6406 10 33C10 47.3594 21.6406 59 36 59Z" fill="url(#paint0_linear_402_6874)"/>
</g>
<rect x="10" y="7" width="52" height="52" rx="20" fill="url(#paint1_linear_402_6874)"/>
<path d="M35.5638 42.0191V49H37.0408V42.0191C36.8099 42.0826 36.5637 42.1126 36.3077 42.1126C36.0512 42.1126 35.8006 42.0782 35.5638 42.0137V42.0191Z" fill="white"/>
<path d="M38.7742 35.6683V36.205H37.2923H35.3231H33.8462V35.6683C31.8129 34.733 30.4 32.68 30.4 30.2973C30.4 27.0338 33.0486 24.3896 36.3077 24.3896C39.5717 24.3896 42.2154 27.0338 42.2154 30.2973C42.2154 32.68 40.8074 34.733 38.7742 35.6683Z" fill="url(#paint2_linear_402_6874)"/>
<path d="M34.8397 28.8193C34.1608 28.8193 33.6084 29.3721 33.6084 30.051C33.6084 30.3233 33.8285 30.5433 34.1007 30.5433C34.373 30.5433 34.593 30.3233 34.593 30.051C34.593 29.9147 34.7038 29.8039 34.8397 29.8039C34.975 29.8039 35.0858 29.9147 35.0858 30.051C35.0858 30.3233 35.3059 30.5433 35.5781 30.5433C35.8504 30.5433 36.0704 30.3233 36.0704 30.051C36.0704 29.3721 35.5181 28.8193 34.8397 28.8193Z" fill="#FFD775"/>
<path d="M36.3171 28.8193C35.6382 28.8193 35.0858 29.3721 35.0858 30.051C35.0858 30.3233 35.3059 30.5433 35.5781 30.5433C35.8504 30.5433 36.0704 30.3233 36.0704 30.051C36.0704 29.9147 36.1812 29.8039 36.3171 29.8039C36.4525 29.8039 36.5632 29.9147 36.5632 30.051C36.5632 30.3233 36.7833 30.5433 37.0555 30.5433C37.3278 30.5433 37.5478 30.3233 37.5478 30.051C37.5478 29.3721 36.9955 28.8193 36.3171 28.8193Z" fill="#FFD775"/>
<path d="M37.7945 28.8193C37.1156 28.8193 36.5632 29.3721 36.5632 30.051C36.5632 30.3233 36.7833 30.5433 37.0555 30.5433C37.3278 30.5433 37.5478 30.3233 37.5478 30.051C37.5478 29.9147 37.6586 29.8039 37.7945 29.8039C37.9299 29.8039 38.0406 29.9147 38.0406 30.051C38.0406 30.3233 38.2607 30.5433 38.533 30.5433C38.8052 30.5433 39.0253 30.3233 39.0253 30.051C39.0253 29.3721 38.4729 28.8193 37.7945 28.8193Z" fill="#FFD775"/>
<path d="M34.1002 29.5588C34.0214 29.5588 33.9417 29.577 33.8669 29.6174C33.6276 29.7464 33.538 30.0452 33.6675 30.2844L35.3915 33.4825C35.5205 33.7217 35.8184 33.8123 36.0581 33.6814C36.2974 33.5524 36.387 33.2545 36.2575 33.0148L34.5334 29.8168C34.4448 29.6518 34.275 29.5588 34.1002 29.5588Z" fill="white"/>
<path d="M38.5334 29.5587C38.3586 29.5587 38.1888 29.6518 38.0997 29.8172L36.3751 33.0152C36.2456 33.2545 36.3352 33.5528 36.5745 33.6818C36.8147 33.8128 37.1126 33.7212 37.2411 33.4829L38.9656 30.2849C39.0951 30.0456 39.0055 29.7463 38.7663 29.6178C38.6919 29.5769 38.6122 29.5587 38.5334 29.5587Z" fill="white"/>
<path d="M36.3087 17.9846C36.0365 17.9846 35.8164 18.2047 35.8164 18.4769V22.4154C35.8164 22.6877 36.0365 22.9077 36.3087 22.9077C36.581 22.9077 36.801 22.6877 36.801 22.4154V18.4769C36.801 18.2047 36.581 17.9846 36.3087 17.9846Z" fill="white"/>
<path d="M42.2164 19.5673C42.0461 19.5673 41.8807 19.6559 41.7896 19.8135L39.8204 23.2242C39.6845 23.46 39.7652 23.7608 40.0006 23.8972C40.2349 24.0325 40.5367 23.9528 40.6731 23.7165L42.6423 20.3058C42.7782 20.07 42.6974 19.7692 42.4621 19.6338C42.3848 19.5885 42.3001 19.5673 42.2164 19.5673Z" fill="white"/>
<path d="M46.5393 23.8922C46.4556 23.8922 46.371 23.9134 46.2937 23.9577L42.883 25.9269C42.6471 26.0623 42.5664 26.3636 42.7028 26.5989C42.8391 26.8348 43.1399 26.9155 43.3753 26.7796L46.786 24.8104C47.0218 24.675 47.1025 24.3737 46.9662 24.1384C46.8751 23.9808 46.7097 23.8922 46.5393 23.8922Z" fill="white"/>
<path d="M44.1847 29.799C43.9129 29.799 43.6924 30.019 43.6924 30.2913C43.6924 30.5625 43.9124 30.7836 44.1847 30.7836H48.1227C48.3944 30.7836 48.615 30.5635 48.615 30.2913C48.615 30.02 48.3949 29.799 48.1227 29.799H44.1847Z" fill="white"/>
<path d="M28.4317 29.799H24.4928C24.2205 29.799 24.0005 30.019 24.0005 30.2913C24.0005 30.5635 24.2205 30.7836 24.4928 30.7836H28.4317C28.704 30.7836 28.9241 30.5635 28.9241 30.2913C28.9241 30.019 28.704 29.799 28.4317 29.799Z" fill="white"/>
<path d="M26.0761 23.8913C25.9057 23.8913 25.7403 23.9799 25.6492 24.1375C25.5134 24.3733 25.5941 24.6741 25.8294 24.8105L29.2411 26.7797C29.4759 26.9151 29.7772 26.8343 29.9136 26.599C30.0495 26.3632 29.9687 26.0624 29.7334 25.927L26.3217 23.9578C26.2444 23.9125 26.1598 23.8913 26.0761 23.8913Z" fill="white"/>
<path d="M30.4 19.5664C30.3163 19.5664 30.2316 19.5876 30.1543 19.6329C29.9185 19.7683 29.8378 20.0695 29.9741 20.3049L31.9439 23.7166C32.0797 23.9529 32.381 24.0331 32.6164 23.8963C32.8522 23.7609 32.9329 23.4596 32.7965 23.2243L30.8268 19.8126C30.7357 19.655 30.5703 19.5664 30.4 19.5664Z" fill="white"/>
<path d="M36.3076 32.2675C35.7656 32.2675 35.323 32.7061 35.323 33.2521V37.1906H37.2922V33.2521C37.2922 32.7056 36.8536 32.2675 36.3076 32.2675Z" fill="#E6E9ED"/>
<path d="M36.3076 42.1125C36.5636 42.1125 36.8098 42.0825 37.0407 42.0195C38.3211 41.6946 39.2664 40.5367 39.2664 39.1587H39.2615V36.6972L38.7741 36.2049H37.2922H35.323H33.8461L33.3538 36.6972V36.2147V39.1538V39.1587C33.3538 40.5317 34.2941 41.6887 35.5637 42.0136C35.8005 42.0776 36.0511 42.1125 36.3076 42.1125Z" fill="#EDEDED"/>
<path d="M38.7686 36.2153H33.8466C33.5743 36.2153 33.3542 36.4354 33.3542 36.7076C33.3542 36.9799 33.5743 37.2 33.8466 37.2H38.7686C39.0409 37.2 39.261 36.9799 39.261 36.7076C39.261 36.4354 39.0409 36.2153 38.7686 36.2153Z" fill="#656D78"/>
<defs>
<filter id="filter0_d_402_6874" x="0" y="0" width="72" height="72" filterUnits="userSpaceOnUse" color-interpolation-filters="sRGB">
<feFlood flood-opacity="0" result="BackgroundImageFix"/>
<feColorMatrix in="SourceAlpha" type="matrix" values="0 0 0 0 0 0 0 0 0 0 0 0 0 0 0 0 0 0 127 0" result="hardAlpha"/>
<feOffset dy="3"/>
<feGaussianBlur stdDeviation="5"/>
<feColorMatrix type="matrix" values="0 0 0 0 0.313726 0 0 0 0 0.345098 0 0 0 0 0.384314 0 0 0 0.3 0"/>
<feBlend mode="normal" in2="BackgroundImageFix" result="effect1_dropShadow_402_6874"/>
<feBlend mode="normal" in="SourceGraphic" in2="effect1_dropShadow_402_6874" result="shape"/>
</filter>
<linearGradient id="paint0_linear_402_6874" x1="62" y1="59" x2="62" y2="7" gradientUnits="userSpaceOnUse">
<stop stop-color="#505862"/>
<stop offset="1" stop-color="#9D9E9F"/>
</linearGradient>
<linearGradient id="paint1_linear_402_6874" x1="62" y1="59" x2="62" y2="7" gradientUnits="userSpaceOnUse">
<stop stop-color="#505862"/>
<stop offset="1" stop-color="#9D9E9F"/>
</linearGradient>
<linearGradient id="paint2_linear_402_6874" x1="30.1024" y1="36.8001" x2="30.1024" y2="24.3896" gradientUnits="userSpaceOnUse">
<stop stop-color="white"/>
<stop offset="1" stop-color="white" stop-opacity="0.802448"/>
</linearGradient>
</defs>
</svg>
