<svg width="72" height="72" viewBox="0 0 72 72" fill="none" xmlns="http://www.w3.org/2000/svg">
<g filter="url(#filter0_d_402_6839)">
<path d="M36 59C50.3594 59 62 47.3594 62 33C62 18.6406 50.3594 7 36 7C21.6406 7 10 18.6406 10 33C10 47.3594 21.6406 59 36 59Z" fill="url(#paint0_linear_402_6839)"/>
</g>
<rect x="10" y="7" width="52" height="52" rx="20" fill="url(#paint1_linear_402_6839)"/>
<path fill-rule="evenodd" clip-rule="evenodd" d="M37.9185 46.2554C37.9185 46.7227 38.2973 47.1015 38.7647 47.1015H45.8754C46.3427 47.1015 46.7216 46.7227 46.7216 46.2554V34.4231H48.7924C49.4058 34.4274 49.9576 34.0506 50.177 33.4777C50.4007 32.907 50.2475 32.2574 49.7924 31.8469L36.8324 20.0384C36.2684 19.5197 35.401 19.5197 34.837 20.0384L21.877 31.8477C21.4217 32.2578 21.2685 32.9073 21.4924 33.4777C21.7115 34.0508 22.2634 34.4276 22.877 34.4231H24.947V46.2554C24.947 46.7227 25.3258 47.1015 25.7931 47.1015H32.897C33.3643 47.1015 33.7431 46.7227 33.7431 46.2554V39.0715H37.9185V46.2554ZM46.4955 21.3415H40.7901L47.3416 27.2984V22.1876C47.3395 21.7212 46.9619 21.3436 46.4955 21.3415Z" fill="url(#paint2_linear_402_6839)"/>
<defs>
<filter id="filter0_d_402_6839" x="0" y="0" width="72" height="72" filterUnits="userSpaceOnUse" color-interpolation-filters="sRGB">
<feFlood flood-opacity="0" result="BackgroundImageFix"/>
<feColorMatrix in="SourceAlpha" type="matrix" values="0 0 0 0 0 0 0 0 0 0 0 0 0 0 0 0 0 0 127 0" result="hardAlpha"/>
<feOffset dy="3"/>
<feGaussianBlur stdDeviation="5"/>
<feColorMatrix type="matrix" values="0 0 0 0 0.607843 0 0 0 0 0.396078 0 0 0 0 0.952941 0 0 0 0.3 0"/>
<feBlend mode="normal" in2="BackgroundImageFix" result="effect1_dropShadow_402_6839"/>
<feBlend mode="normal" in="SourceGraphic" in2="effect1_dropShadow_402_6839" result="shape"/>
</filter>
<linearGradient id="paint0_linear_402_6839" x1="10.5311" y1="7" x2="10.5311" y2="57.9377" gradientUnits="userSpaceOnUse">
<stop stop-color="#D8BEFF"/>
<stop offset="1" stop-color="#A770FF"/>
</linearGradient>
<linearGradient id="paint1_linear_402_6839" x1="14.8874" y1="16.7747" x2="14.8874" y2="59" gradientUnits="userSpaceOnUse">
<stop stop-color="#CCAAFF"/>
<stop offset="1" stop-color="#975FF2"/>
</linearGradient>
<linearGradient id="paint2_linear_402_6839" x1="20.6631" y1="18.2666" x2="20.6631" y2="47.1015" gradientUnits="userSpaceOnUse">
<stop stop-color="white"/>
<stop offset="1" stop-color="white" stop-opacity="0.802448"/>
</linearGradient>
</defs>
</svg>
