<svg width="72" height="72" viewBox="0 0 72 72" fill="none" xmlns="http://www.w3.org/2000/svg">
<g filter="url(#filter0_d_402_6816)">
<path d="M36 59C50.3594 59 62 47.3594 62 33C62 18.6406 50.3594 7 36 7C21.6406 7 10 18.6406 10 33C10 47.3594 21.6406 59 36 59Z" fill="url(#paint0_linear_402_6816)"/>
</g>
<rect x="10" y="7" width="52" height="52" rx="20" fill="url(#paint1_linear_402_6816)"/>
<path d="M35.9759 22.5413C37.2733 22.5413 38.394 21.7141 38.7965 20.4972C38.0285 20.7086 37.0495 20.8362 35.9759 20.8362C34.9024 20.8362 33.9235 20.7086 33.1555 20.4972C33.5579 21.714 34.6784 22.5413 35.9759 22.5413Z" fill="white"/>
<path d="M50.9147 24.0378C50.8531 23.8649 50.7249 23.7227 50.5578 23.6452L44.8474 21.0091C43.6327 20.5976 42.3952 20.2726 41.1457 20.035C41.1017 20.0264 41.0579 20.0222 41.0147 20.0222C40.7054 20.0222 40.4284 20.2358 40.3595 20.5489C39.9032 22.5577 38.125 24.0617 35.9759 24.0617C33.827 24.0617 32.0487 22.5578 31.5925 20.5489C31.5227 20.2358 31.2463 20.0222 30.9371 20.0222C30.894 20.0222 30.8502 20.0264 30.8062 20.035C29.5567 20.2726 28.3192 20.5976 27.1026 21.0091L21.3942 23.6451C21.2262 23.7226 21.097 23.8648 21.0384 24.0377C20.9776 24.2126 20.9886 24.4014 21.0741 24.5664L23.5532 29.4588C23.6692 29.691 23.9053 29.8304 24.155 29.8304C24.2195 29.8304 24.2848 29.8211 24.3493 29.8017L27.1027 28.9856V45.4015C27.1027 45.7743 27.4069 46.0783 27.7807 46.0783H44.1715C44.5443 46.0783 44.8475 45.7742 44.8475 45.4015V28.9858L47.6028 29.8019C47.6673 29.8213 47.7326 29.8306 47.7969 29.8306C48.0462 29.8306 48.2813 29.6912 48.399 29.459L50.8789 24.5666C50.9624 24.4015 50.9744 24.2127 50.9147 24.0378Z" fill="url(#paint2_linear_402_6816)"/>
<defs>
<filter id="filter0_d_402_6816" x="0" y="0" width="72" height="72" filterUnits="userSpaceOnUse" color-interpolation-filters="sRGB">
<feFlood flood-opacity="0" result="BackgroundImageFix"/>
<feColorMatrix in="SourceAlpha" type="matrix" values="0 0 0 0 0 0 0 0 0 0 0 0 0 0 0 0 0 0 127 0" result="hardAlpha"/>
<feOffset dy="3"/>
<feGaussianBlur stdDeviation="5"/>
<feColorMatrix type="matrix" values="0 0 0 0 1 0 0 0 0 0.486275 0 0 0 0 0.447059 0 0 0 0.3 0"/>
<feBlend mode="normal" in2="BackgroundImageFix" result="effect1_dropShadow_402_6816"/>
<feBlend mode="normal" in="SourceGraphic" in2="effect1_dropShadow_402_6816" result="shape"/>
</filter>
<linearGradient id="paint0_linear_402_6816" x1="62" y1="59" x2="62" y2="7" gradientUnits="userSpaceOnUse">
<stop stop-color="#FF7171"/>
<stop offset="1" stop-color="#FFBC6C"/>
</linearGradient>
<linearGradient id="paint1_linear_402_6816" x1="62" y1="59" x2="62" y2="7" gradientUnits="userSpaceOnUse">
<stop stop-color="#FF7171"/>
<stop offset="1" stop-color="#FFBC6C"/>
</linearGradient>
<linearGradient id="paint2_linear_402_6816" x1="18.0751" y1="14.9334" x2="18.0751" y2="46.0783" gradientUnits="userSpaceOnUse">
<stop stop-color="white"/>
<stop offset="1" stop-color="white" stop-opacity="0.700639"/>
<stop offset="1" stop-color="white" stop-opacity="0.793597"/>
</linearGradient>
</defs>
</svg>
