<svg width="72" height="72" viewBox="0 0 72 72" fill="none" xmlns="http://www.w3.org/2000/svg">
<g filter="url(#filter0_d_402_6896)">
<path d="M36 59C50.3594 59 62 47.3594 62 33C62 18.6406 50.3594 7 36 7C21.6406 7 10 18.6406 10 33C10 47.3594 21.6406 59 36 59Z" fill="url(#paint0_linear_402_6896)"/>
</g>
<rect x="10" y="7" width="52" height="52" rx="20" fill="url(#paint1_linear_402_6896)"/>
<path d="M42.7058 31.2089C42.7064 31.6348 42.5273 32.0425 42.2099 32.3377L32.4762 41.7513C32.0529 42.1571 31.4335 42.3056 30.8632 42.138C30.2929 41.9704 29.8637 41.5137 29.7455 40.9487C29.6272 40.3838 29.839 39.8016 30.297 39.4327L38.7929 31.2089L30.1809 22.8839C29.7712 22.4876 29.6111 21.9099 29.7611 21.3686C29.9111 20.8272 30.3483 20.4044 30.9081 20.2593C31.4679 20.1142 32.0652 20.269 32.4749 20.6653L42.2087 30.0789C42.5268 30.3742 42.7064 30.7824 42.7058 31.2089Z" fill="white"/>
<defs>
<filter id="filter0_d_402_6896" x="0" y="0" width="72" height="72" filterUnits="userSpaceOnUse" color-interpolation-filters="sRGB">
<feFlood flood-opacity="0" result="BackgroundImageFix"/>
<feColorMatrix in="SourceAlpha" type="matrix" values="0 0 0 0 0 0 0 0 0 0 0 0 0 0 0 0 0 0 127 0" result="hardAlpha"/>
<feOffset dy="3"/>
<feGaussianBlur stdDeviation="5"/>
<feColorMatrix type="matrix" values="0 0 0 0 0.313726 0 0 0 0 0.345098 0 0 0 0 0.384314 0 0 0 0.3 0"/>
<feBlend mode="normal" in2="BackgroundImageFix" result="effect1_dropShadow_402_6896"/>
<feBlend mode="normal" in="SourceGraphic" in2="effect1_dropShadow_402_6896" result="shape"/>
</filter>
<linearGradient id="paint0_linear_402_6896" x1="62" y1="59" x2="62" y2="7" gradientUnits="userSpaceOnUse">
<stop stop-color="#505862"/>
<stop offset="1" stop-color="#9D9E9F"/>
</linearGradient>
<linearGradient id="paint1_linear_402_6896" x1="62" y1="59" x2="62" y2="7" gradientUnits="userSpaceOnUse">
<stop stop-color="#505862"/>
<stop offset="1" stop-color="#9D9E9F"/>
</linearGradient>
</defs>
</svg>
