<svg width="72" height="72" viewBox="0 0 72 72" fill="none" xmlns="http://www.w3.org/2000/svg">
<g filter="url(#filter0_d_402_6824)">
<path d="M36 59C50.3594 59 62 47.3594 62 33C62 18.6406 50.3594 7 36 7C21.6406 7 10 18.6406 10 33C10 47.3594 21.6406 59 36 59Z" fill="url(#paint0_linear_402_6824)"/>
</g>
<rect x="10" y="7" width="52" height="52" rx="20" fill="url(#paint1_linear_402_6824)"/>
<path d="M46.0137 45.7701L40.0588 30.6879L31.9745 30.6835L26.0137 45.7865L29.4635 46.1788L28.9643 47.384L43.1398 47.3708L42.5639 46.1627L46.0137 45.7701Z" fill="url(#paint2_linear_402_6824)"/>
<path d="M38.8294 18L36.06 22.5805V22.593L33.2992 18.0161L28.064 19.4564L29.848 24.2989L31.186 25.0841L32.1459 29.6802L39.9808 29.6835L40.9423 25.0672L42.2802 24.2822L44.064 19.4395L38.8294 18Z" fill="white"/>
<defs>
<filter id="filter0_d_402_6824" x="0" y="0" width="72" height="72" filterUnits="userSpaceOnUse" color-interpolation-filters="sRGB">
<feFlood flood-opacity="0" result="BackgroundImageFix"/>
<feColorMatrix in="SourceAlpha" type="matrix" values="0 0 0 0 0 0 0 0 0 0 0 0 0 0 0 0 0 0 127 0" result="hardAlpha"/>
<feOffset dy="3"/>
<feGaussianBlur stdDeviation="5"/>
<feColorMatrix type="matrix" values="0 0 0 0 0.27451 0 0 0 0 0.819608 0 0 0 0 0.556863 0 0 0 0.296137 0"/>
<feBlend mode="normal" in2="BackgroundImageFix" result="effect1_dropShadow_402_6824"/>
<feBlend mode="normal" in="SourceGraphic" in2="effect1_dropShadow_402_6824" result="shape"/>
</filter>
<linearGradient id="paint0_linear_402_6824" x1="10.6231" y1="8.2462" x2="10.6231" y2="59" gradientUnits="userSpaceOnUse">
<stop stop-color="#8AF0E3"/>
<stop offset="1" stop-color="#54D094"/>
</linearGradient>
<linearGradient id="paint1_linear_402_6824" x1="10" y1="7" x2="10" y2="59" gradientUnits="userSpaceOnUse">
<stop stop-color="#A2F0E6"/>
<stop offset="1" stop-color="#44D18C"/>
</linearGradient>
<linearGradient id="paint2_linear_402_6824" x1="28.374" y1="34.6253" x2="28.374" y2="47.384" gradientUnits="userSpaceOnUse">
<stop stop-color="white"/>
<stop offset="1" stop-color="white" stop-opacity="0.801273"/>
</linearGradient>
</defs>
</svg>
