<svg width="24" height="24" viewBox="0 0 24 24" fill="none" xmlns="http://www.w3.org/2000/svg">
<path d="M5.4516 15L5.03613 17.9658L1.60597 17.9749C0.612706 16.1447 0.0674828 14.061 0.105777 11.8576C0.142806 9.72697 0.611893 7.76619 1.60597 6.01389L6.61419 6.14327L5.57088 8.30807C5.27747 9.08118 5.05123 10.9886 5.03613 11.8576C5.01984 12.8008 5.13735 14.1605 5.4516 15Z" fill="#FBBB00"/>
<path d="M24.0001 11.8892C24.0001 12.7779 23.9081 13.6449 23.733 14.4811C23.1383 17.3268 21.5843 19.8116 19.4316 21.5701L15.9452 21.3887L15.645 18.4631C17.0734 17.6119 18.0919 16.0758 18.6799 14.4811H12.052V9.57007H18.6799H23.7866C23.9269 10.321 24.0001 11.0966 24.0001 11.8892Z" fill="#518EF8"/>
<path d="M19.5189 21.4955L19.5196 21.4961C17.4813 23.0627 14.8921 24 12.0736 24C7.54424 24 3.60628 21.5793 1.59741 18.0169L5.45174 15C6.45615 17.5632 9.04204 19.3879 12.0736 19.3879C13.3767 19.3879 14.5974 19.051 15.645 18.463L19.5189 21.4955Z" fill="#28B446"/>
<path d="M19.5196 2.56809L15.716 5.52661C14.6458 4.89104 13.3808 4.52388 12.0254 4.52388C8.96508 4.52388 6.36468 6.3957 5.42285 9L1.59805 6.02492H1.59741C3.55143 2.44552 7.48781 0 12.0254 0C14.8742 0 17.4862 0.964124 19.5196 2.56809Z" fill="#F14336"/>
</svg>
