<svg width="19" height="24" viewBox="0 0 19 24" fill="none" xmlns="http://www.w3.org/2000/svg">
<path fill-rule="evenodd" clip-rule="evenodd" d="M15 24C12.7909 24 11 22.2091 11 20C11 17.7909 12.7909 16 15 16C17.2091 16 19 17.7909 19 20C19 22.2091 17.2091 24 15 24ZM16.9494 20.7595V19.2405H15.7595V18.0506H14.2405V19.2405H13.0506V20.7595H14.2405V21.9494H15.7595V20.7595H16.9494Z" fill="#727C8E"/>
<path d="M11.506 16.7647C12.4676 15.7951 13.7461 15.2609 15.1063 15.2609C15.409 15.2609 15.7079 15.2876 16 15.3395C15.5079 12.4569 13.5047 10.089 10.8451 9.09762C12.1459 8.19882 13.0009 6.69028 13.0009 4.98376C13.0009 2.23567 10.7838 0 8.05839 0C5.33303 0 3.11585 2.23567 3.11585 4.98376C3.11585 6.69009 3.97108 8.19882 5.27172 9.09762C2.19748 10.2437 0 13.2288 0 16.722V20H10.0294C10.1212 18.7774 10.6372 17.6407 11.506 16.7647Z" fill="#727C8E"/>
</svg>
