<svg width="12" height="24" viewBox="0 0 12 24" fill="none" xmlns="http://www.w3.org/2000/svg">
<path d="M11.4295 11.9966C11.43 11.532 11.2726 11.0872 10.9935 10.7652L2.43571 0.495813C2.06355 0.0531041 1.51898 -0.108892 1.01759 0.0739549C0.516204 0.256802 0.138834 0.755009 0.034875 1.37135C-0.0690836 1.98769 0.117131 2.62278 0.519802 3.02521L7.9893 11.9966L0.417739 21.0785C0.0574607 21.5108 -0.083244 22.1409 0.048627 22.7315C0.180498 23.3221 0.56491 23.7834 1.05706 23.9416C1.54921 24.0999 2.07432 23.931 2.4346 23.4987L10.9924 13.2293C11.2721 12.9072 11.43 12.4619 11.4295 11.9966Z" fill="#727C8E"/>
</svg>
