<svg width="13" height="24" viewBox="0 0 13 24" fill="none" xmlns="http://www.w3.org/2000/svg">
<path d="M4.19617e-05 12C-0.000516891 12.4188 0.167229 12.8197 0.464496 13.11L9.58104 22.3668C9.9775 22.7659 10.5576 22.9119 11.0917 22.7471C11.6259 22.5822 12.0279 22.1332 12.1386 21.5776C12.2494 21.022 12.051 20.4495 11.622 20.0868L3.66486 12L11.7308 3.8136C12.1146 3.42389 12.2645 2.85588 12.124 2.32354C11.9835 1.79119 11.574 1.37538 11.0497 1.23274C10.5254 1.0901 9.96602 1.24229 9.58222 1.632L0.465678 10.8888C0.167679 11.1792 -0.000530243 11.5806 4.19617e-05 12Z" fill="#727C8E"/>
</svg>
