<svg width="24" height="14" viewBox="0 0 24 14" fill="none" xmlns="http://www.w3.org/2000/svg">
<path d="M12.0034 13.7154C12.468 13.716 12.9128 13.5271 13.2348 13.1922L23.5042 2.92285C23.9469 2.47626 24.1089 1.82278 23.926 1.22111C23.7432 0.619444 23.245 0.1666 22.6287 0.04185C22.0123 -0.0829004 21.3772 0.140558 20.9748 0.623763L12.0034 9.58716L2.92152 0.501287C2.48919 0.0689528 1.85905 -0.0998928 1.26847 0.0583524C0.677891 0.216597 0.216599 0.677892 0.0583534 1.26847C-0.0998917 1.85905 0.0689526 2.48919 0.501287 2.92152L10.7707 13.1909C11.0928 13.5266 11.5381 13.7161 12.0034 13.7154Z" fill="#727C8E"/>
</svg>
