<svg width="82" height="26" viewBox="0 0 82 26" fill="none" xmlns="http://www.w3.org/2000/svg">
<path d="M48.2395 22.0173L33.9855 7.76335C33.6396 7.41742 32.9252 7.57089 32.39 8.10613C31.8547 8.64142 31.7012 9.35576 32.0472 9.70169L46.3011 23.9556C46.6471 24.3016 47.3614 24.1481 47.8967 23.6129C48.4319 23.0776 48.5854 22.3633 48.2395 22.0173Z" fill="#727C8E"/>
<path d="M32.5612 8.56125L43.8913 8.75254C44.4567 8.76208 44.9072 8.31151 44.8977 7.74614C44.8881 7.1808 44.4221 6.71476 43.8567 6.70518L31.503 6.49657C30.9376 6.48703 30.487 6.9376 30.4966 7.50297L30.7052 19.8567C30.7099 20.1394 30.8289 20.3973 31.0172 20.5857C31.2056 20.774 31.4635 20.893 31.7462 20.8977C32.3116 20.9073 32.7621 20.4567 32.7526 19.8913L32.5612 8.56125Z" fill="#727C8E"/>
</svg>
