<svg width="24" height="20" viewBox="0 0 24 20" fill="none" xmlns="http://www.w3.org/2000/svg">
<path fill-rule="evenodd" clip-rule="evenodd" d="M18.2637 3.80771L20.7824 3.82034C22.5495 3.82034 24 5.21189 24 6.90699V16.888C24 18.5832 22.5495 20 20.7824 20H3.21757C1.45057 20 0 18.5832 0 16.888V6.90699C0 5.21189 1.45057 3.82034 3.21762 3.82034L5.55169 3.80771L8.044 0.341557C8.18902 0.139168 8.42638 0 8.69014 0H15.1912C15.4549 0 15.7055 0.139123 15.8505 0.354192L18.2637 3.80771ZM20.7825 18.4819C21.6791 18.4819 22.4176 17.7483 22.4176 16.8881H22.4044V6.90701C22.4044 6.04682 21.666 5.33839 20.7693 5.33839L17.8154 5.31308C17.5649 5.31308 17.3144 5.17391 17.1693 4.97152L14.7693 1.53064H9.11212L6.61981 4.99679C6.47479 5.19918 6.23742 5.33835 5.97367 5.33835H3.21761C2.32094 5.33835 1.58246 6.04673 1.58246 6.90697V16.888C1.58246 17.7482 2.32089 18.4819 3.21761 18.4819H20.7825Z" fill="#727C8E"/>
<path fill-rule="evenodd" clip-rule="evenodd" d="M7.19995 11.1765C7.19995 8.26158 9.61409 5.88232 12.6 5.88232C15.5731 5.88232 18 8.26154 18 11.1764C18 14.0913 15.5731 16.4706 12.6 16.4706C9.62678 16.4706 7.19995 14.0913 7.19995 11.1765ZM8.72467 11.1765C8.72467 13.2693 10.4654 14.9759 12.6 14.9759C14.7346 14.9759 16.4753 13.2693 16.4753 11.1765C16.4753 9.08379 14.7346 7.3772 12.6 7.3772C10.4654 7.3772 8.72467 9.08379 8.72467 11.1765Z" fill="#727C8E"/>
<path d="M19.8 8.23531C20.1313 8.23531 20.4 7.97195 20.4 7.64707C20.4 7.3222 20.1313 7.05884 19.8 7.05884C19.4686 7.05884 19.2 7.3222 19.2 7.64707C19.2 7.97195 19.4686 8.23531 19.8 8.23531Z" fill="#727C8E"/>
</svg>
