<svg width="42" height="24" viewBox="0 0 42 24" fill="none" xmlns="http://www.w3.org/2000/svg">
<path fill-rule="evenodd" clip-rule="evenodd" d="M9.36071 0H40.1173C40.8558 0 41.4545 0.596912 41.4545 1.33332V22.6667C41.4545 23.403 40.8558 24 40.1173 24H9.36071V23.3333C9.36071 22.9649 9.0617 22.6667 8.69209 22.6667C8.32257 22.6667 8.02348 22.9648 8.02348 23.3333V24H1.33723C0.598743 24 0 23.403 0 22.6667V16.7979C0 16.4619 0.165737 16.1425 0.452356 15.9657C1.78497 15.1438 2.67447 13.6772 2.67447 12C2.67447 10.3228 1.78497 8.85616 0.452356 8.03434C0.165737 7.85754 0 7.53818 0 7.2021V1.33332C0 0.596912 0.598743 0 1.33723 0H8.02348V0.666662C8.02348 1.03511 8.32248 1.33332 8.69209 1.33332C9.06162 1.33332 9.36071 1.03519 9.36071 0.666662V0ZM8.6921 21.3333C9.06163 21.3333 9.36072 21.0352 9.36072 20.6666V19.3333C9.36072 18.9649 9.06171 18.6666 8.6921 18.6666C8.32257 18.6666 8.02348 18.9648 8.02348 19.3333V20.6666C8.02348 21.0351 8.32249 21.3333 8.6921 21.3333ZM9.36072 16.6666C9.36072 17.0352 9.06163 17.3333 8.6921 17.3333C8.32249 17.3333 8.02348 17.0351 8.02348 16.6666V15.3333C8.02348 14.9648 8.32257 14.6666 8.6921 14.6666C9.06171 14.6666 9.36072 14.9649 9.36072 15.3333V16.6666ZM8.6921 13.3333C9.06163 13.3333 9.36072 13.0351 9.36072 12.6666V11.3333C9.36072 10.9648 9.06171 10.6666 8.6921 10.6666C8.32257 10.6666 8.02348 10.9648 8.02348 11.3333V12.6666C8.02348 13.0351 8.32249 13.3333 8.6921 13.3333ZM9.36072 8.6666C9.36072 9.03513 9.06163 9.33326 8.6921 9.33326C8.32249 9.33326 8.02348 9.03505 8.02348 8.6666V7.33327C8.02348 6.96474 8.32257 6.66661 8.6921 6.66661C9.06171 6.66661 9.36072 6.96482 9.36072 7.33327V8.6666ZM8.6921 5.33326C9.06163 5.33326 9.36072 5.03513 9.36072 4.6666V3.33327C9.36072 2.96482 9.06171 2.66661 8.6921 2.66661C8.32257 2.66661 8.02348 2.96474 8.02348 3.33327V4.6666C8.02348 5.03505 8.32249 5.33326 8.6921 5.33326Z" fill="#727C8E"/>
<path d="M39.6943 22.9092H11.5786C11.2089 22.9092 10.9092 22.6192 10.9092 22.2614V2.82961C10.9092 2.47186 11.2089 2.18188 11.5786 2.18188H39.6943C40.064 2.18188 40.3637 2.47186 40.3637 2.82961V22.2614C40.3637 22.6192 40.064 22.9092 39.6943 22.9092Z" fill="#727C8E"/>
<path d="M25.091 15.3208L21.5482 17.3115C20.7675 17.7502 19.7877 17.1131 20.0126 16.3129L21.0331 12.682L17.8231 10.2814C17.1156 9.75237 17.4899 8.72147 18.4097 8.66568L22.5831 8.4124L24.1419 4.93804C24.4854 4.17235 25.6965 4.17235 26.04 4.93804L27.5988 8.4124L31.7722 8.66568C32.692 8.72154 33.0663 9.75244 32.3588 10.2814L29.1488 12.682L30.1693 16.3129C30.3942 17.1131 29.4145 17.7503 28.6337 17.3115L25.091 15.3208Z" fill="white"/>
<path d="M30.0555 14.7766C25.5072 14.5383 21.651 12.1252 19.889 8.72729L18.4354 8.81173C17.4908 8.86665 17.1065 9.88042 17.833 10.4006L21.1296 12.7613L20.0815 16.3318C19.8505 17.1187 20.8567 17.7452 21.6585 17.3138L25.2968 15.3562L28.9349 17.3138C29.7367 17.7452 30.7429 17.1187 30.5119 16.3318L30.0555 14.7766Z" fill="#F3F6FB"/>
</svg>
