<svg width="6" height="24" viewBox="0 0 6 24" fill="none" xmlns="http://www.w3.org/2000/svg">
<path d="M0.998 11.999C0.998 13.3803 2.11774 14.5 3.499 14.5C4.88026 14.5 6 13.3803 6 11.999C6 10.6178 4.88026 9.49805 3.499 9.49805C2.11774 9.49805 0.998 10.6178 0.998 11.999Z" fill="#727C8E"/>
<path d="M0.998 21.497C0.998 22.8782 2.11774 23.998 3.499 23.998C4.88026 23.998 6 22.8782 6 21.497C6 20.1157 4.88026 18.996 3.499 18.996C2.11774 18.996 0.998 20.1157 0.998 21.497Z" fill="#E3E5E8"/>
<path d="M0.998 2.501C0.998 3.88226 2.11774 5.002 3.499 5.002C4.88026 5.002 6 3.88226 6 2.501C6 1.11974 4.88026 0 3.499 0C2.11774 0 0.998 1.11974 0.998 2.501Z" fill="#E3E5E8"/>
</svg>
