<svg width="21" height="24" viewBox="0 0 21 24" fill="none" xmlns="http://www.w3.org/2000/svg">
<mask id="mask0_208_9045" style="mask-type:luminance" maskUnits="userSpaceOnUse" x="0" y="0" width="21" height="24">
<rect width="21" height="24" fill="white"/>
</mask>
<g mask="url(#mask0_208_9045)">
<path fill-rule="evenodd" clip-rule="evenodd" d="M18.5294 16.8V10.2C18.545 6.58656 15.979 3.44577 12.3529 2.64V1.8C12.3529 0.805887 11.5234 0 10.5 0C9.47665 0 8.64706 0.805887 8.64706 1.8V2.64C5.02097 3.44577 2.45496 6.58656 2.47059 10.2V16.8L0 19.2V20.4H21V19.2L18.5294 16.8ZM10.5 24C11.8628 23.996 12.9665 22.9238 12.9706 21.6H8.0294C8.03347 22.9238 9.13721 23.996 10.5 24ZM4.94116 18H16.0588V10.2C16.0588 7.21771 13.57 4.80005 10.5 4.80005C7.42993 4.80005 4.94116 7.21771 4.94116 10.2V18Z" fill="#727C8E"/>
</g>
</svg>
