<svg width="16" height="24" viewBox="0 0 16 24" fill="none" xmlns="http://www.w3.org/2000/svg">
<path d="M11.5 8.40002C11.2238 8.40002 11 8.65705 11 8.97419V19.8259C11 20.1428 11.2238 20.4 11.5 20.4C11.7762 20.4 12 20.1428 12 19.8259V8.97419C12 8.65705 11.7762 8.40002 11.5 8.40002Z" fill="#727C8E"/>
<path d="M4.5 8.40002C4.22383 8.40002 4 8.65705 4 8.97419V19.8259C4 20.1428 4.22383 20.4 4.5 20.4C4.77617 20.4 5 20.1428 5 19.8259V8.97419C5 8.65705 4.77617 8.40002 4.5 8.40002Z" fill="#727C8E"/>
<path fill-rule="evenodd" clip-rule="evenodd" d="M1.31033 20.9929V7.14501C0.454836 6.86837 -0.0995129 5.8615 0.0149251 4.79205C0.129543 3.72283 0.877266 2.92299 1.76249 2.92277H4.1246V2.2202C4.1219 1.62938 4.31365 1.06205 4.65697 0.644684C5.00028 0.227531 5.46668 -0.00475633 5.95165 7.38497e-05H10.0484C10.5333 -0.00475633 10.9997 0.227531 11.343 0.644684C11.6863 1.06205 11.8781 1.62938 11.8754 2.2202V2.92277H14.2375C15.1227 2.92299 15.8705 3.72283 15.9851 4.79205C16.0995 5.8615 15.5452 6.86837 14.6897 7.14501V20.9929C14.6897 21.8114 14.4433 22.5801 14.013 23.1316C13.5848 23.6846 12.9886 23.9986 12.3645 23.9999H3.63549C3.01158 23.9986 2.41542 23.6846 1.98704 23.1316C1.55669 22.5801 1.31033 21.8114 1.31033 20.9929ZM3.63549 22.8758H12.3645C13.1533 22.8758 13.767 22.0503 13.767 20.9929V7.19441H2.23304V20.9929C2.23304 22.0503 2.84668 22.8758 3.63549 22.8758ZM5.04732 2.22022C5.04425 1.92755 5.13869 1.64586 5.30917 1.43926C5.47948 1.23266 5.71124 1.11915 5.95165 1.1242H10.0484C10.2888 1.11915 10.5205 1.23266 10.6908 1.43926C10.8613 1.64564 10.9557 1.92755 10.9527 2.22022V2.92279H5.04732V2.22022ZM14.2375 4.04689H1.76249C1.30384 4.04689 0.932052 4.49983 0.932052 5.0586C0.932052 5.61736 1.30384 6.0703 1.76249 6.0703H14.2375C14.6962 6.0703 15.0679 5.61736 15.0679 5.0586C15.0679 4.49983 14.6962 4.04689 14.2375 4.04689Z" fill="#727C8E"/>
<path d="M8.5 8.40002C8.22383 8.40002 8 8.65705 8 8.97419V19.8259C8 20.1428 8.22383 20.4 8.5 20.4C8.77617 20.4 9 20.1428 9 19.8259V8.97419C9 8.65705 8.77617 8.40002 8.5 8.40002Z" fill="#727C8E"/>
</svg>
