<svg width="24" height="23" viewBox="0 0 24 23" fill="none" xmlns="http://www.w3.org/2000/svg">
<mask id="mask0_208_9085" style="mask-type:luminance" maskUnits="userSpaceOnUse" x="0" y="0" width="24" height="23">
<rect width="24" height="23" fill="white"/>
</mask>
<g mask="url(#mask0_208_9085)">
<path fill-rule="evenodd" clip-rule="evenodd" d="M23.6637 9.73025L12.597 0.353507C12.2899 0.0932646 11.8309 0.0932646 11.5239 0.353507L0.457141 9.73025C0.132338 10.0196 0.105592 10.5067 0.396872 10.8277C0.688152 11.1487 1.19113 11.1865 1.53025 10.9129L2.38674 10.1866V21.8864C2.38674 22.3209 2.75114 22.6732 3.20065 22.6732H20.9214C21.3709 22.6732 21.7353 22.3209 21.7353 21.8864V10.1927L22.5918 10.919C22.9309 11.1926 23.4339 11.1548 23.7252 10.8337C24.0165 10.5127 23.9897 10.0257 23.6649 9.7363L23.6637 9.73025ZM10.1828 21.0995V14.6195H13.9393V21.0995H10.1828ZM20.1075 21.1007V8.81511V8.8139C20.1075 8.8134 20.1076 8.81311 20.1076 8.81295L20.1088 8.8139C20.1088 8.8139 20.108 8.81237 20.1076 8.81295L12.0623 1.99621L4.01582 8.8139V21.1007H8.55621V13.8376C8.55621 13.403 8.92061 13.0507 9.37012 13.0507H14.7545C15.204 13.0507 15.5684 13.403 15.5684 13.8376V21.1007H20.1075Z" fill="#727C8E"/>
<path d="M12.597 0.353507L12.4353 0.544223L12.4354 0.544246L12.597 0.353507ZM23.6637 9.73025L23.9085 9.67954L23.891 9.59519L23.8253 9.53951L23.6637 9.73025ZM11.5239 0.353507L11.6855 0.544246L11.6855 0.544223L11.5239 0.353507ZM0.457141 9.73025L0.295478 9.53945L0.29083 9.54359L0.457141 9.73025ZM0.396872 10.8277L0.211727 10.9957L0.211728 10.9957L0.396872 10.8277ZM1.53025 10.9129L1.68728 11.1076L1.69195 11.1036L1.53025 10.9129ZM2.38674 10.1866H2.63674V9.64682L2.22505 9.99594L2.38674 10.1866ZM21.7353 10.1927L21.897 10.002L21.4853 9.65287V10.1927H21.7353ZM22.5918 10.919L22.4301 11.1097L22.4348 11.1136L22.5918 10.919ZM23.6649 9.7363L23.4201 9.787L23.4369 9.86796L23.4986 9.92295L23.6649 9.7363ZM10.1828 14.6195V14.3695H9.93278V14.6195H10.1828ZM10.1828 21.0995H9.93278V21.3495H10.1828V21.0995ZM13.9393 14.6195H14.1893V14.3695H13.9393V14.6195ZM13.9393 21.0995V21.3495H14.1893V21.0995H13.9393ZM20.1075 21.1007V21.3507H20.3575V21.1007H20.1075ZM20.1088 8.8139L19.9471 9.00458L20.3308 8.699L20.1088 8.8139ZM12.0623 1.99621L12.2239 1.80548L12.0623 1.66854L11.9007 1.80548L12.0623 1.99621ZM4.01582 8.8139L3.85421 8.62316L3.76582 8.69805V8.8139H4.01582ZM4.01582 21.1007H3.76582V21.3507H4.01582V21.1007ZM8.55621 21.1007V21.3507H8.80621V21.1007H8.55621ZM15.5684 21.1007H15.3184V21.3507H15.5684V21.1007ZM12.4354 0.544246L23.5021 9.92099L23.8253 9.53951L12.7586 0.162768L12.4354 0.544246ZM11.6855 0.544223C11.8993 0.363026 12.2215 0.363026 12.4353 0.544223L12.7586 0.162791C12.3583 -0.176497 11.7625 -0.176497 11.3622 0.162791L11.6855 0.544223ZM0.618753 9.92099L11.6855 0.544246L11.3622 0.162768L0.295529 9.53951L0.618753 9.92099ZM0.582017 10.6597C0.384684 10.4422 0.401758 10.1144 0.623451 9.9169L0.29083 9.54359C-0.137081 9.92486 -0.1735 10.5711 0.211727 10.9957L0.582017 10.6597ZM1.37327 10.7184C1.13634 10.9095 0.78354 10.8818 0.582016 10.6597L0.211728 10.9957C0.592763 11.4156 1.24591 11.4636 1.68723 11.1075L1.37327 10.7184ZM2.22505 9.99594L1.36856 10.7223L1.69195 11.1036L2.54843 10.3773L2.22505 9.99594ZM2.63674 21.8864V10.1866H2.13674V21.8864H2.63674ZM3.20065 22.4232C2.88118 22.4232 2.63674 22.1749 2.63674 21.8864H2.13674C2.13674 22.4669 2.62111 22.9232 3.20065 22.9232V22.4232ZM20.9214 22.4232H3.20065V22.9232H20.9214V22.4232ZM21.4853 21.8864C21.4853 22.1749 21.2409 22.4232 20.9214 22.4232V22.9232C21.501 22.9232 21.9853 22.4669 21.9853 21.8864H21.4853ZM21.4853 10.1927V21.8864H21.9853V10.1927H21.4853ZM22.7535 10.7283L21.897 10.002L21.5736 10.3833L22.4301 11.1097L22.7535 10.7283ZM23.5401 10.6658C23.3385 10.8879 22.9857 10.9156 22.7488 10.7244L22.4348 11.1136C22.8762 11.4696 23.5293 11.4217 23.9103 11.0017L23.5401 10.6658ZM23.4986 9.92295C23.7203 10.1205 23.7374 10.4483 23.5401 10.6658L23.9103 11.0017C24.2956 10.5772 24.2592 9.93091 23.8312 9.54964L23.4986 9.92295ZM23.4189 9.78095L23.4201 9.787L23.9097 9.68559L23.9085 9.67954L23.4189 9.78095ZM9.93278 14.6195V21.0995H10.4328V14.6195H9.93278ZM13.9393 14.3695H10.1828V14.8695H13.9393V14.3695ZM14.1893 21.0995V14.6195H13.6893V21.0995H14.1893ZM10.1828 21.3495H13.9393V20.8495H10.1828V21.3495ZM19.8575 8.81511V21.1007H20.3575V8.81511H19.8575ZM19.8575 8.8139V8.81511H20.3575V8.8139H19.8575ZM19.8886 8.69247C19.855 8.75355 19.8575 8.81174 19.8575 8.8139H20.3575C20.3575 8.82152 20.3572 8.83486 20.3546 8.85131C20.3525 8.86516 20.3465 8.89734 20.3267 8.93343L19.8886 8.69247ZM19.946 9.00364L19.9471 9.00458L20.2704 8.62321L20.2693 8.62227L19.946 9.00364ZM20.1088 8.8139C20.3308 8.699 20.3308 8.69896 20.3308 8.69893C20.3308 8.69892 20.3307 8.69888 20.3307 8.69886C20.3307 8.69881 20.3307 8.69876 20.3306 8.69871C20.3306 8.69862 20.3305 8.69852 20.3305 8.69843C20.3304 8.69823 20.3303 8.69803 20.3302 8.69783C20.33 8.69743 20.3298 8.69701 20.3295 8.69658C20.3291 8.69571 20.3286 8.69477 20.328 8.69375C20.3269 8.69177 20.3255 8.68933 20.3239 8.68655C20.3213 8.6821 20.3153 8.67219 20.3063 8.66058C20.3041 8.65764 20.2754 8.61776 20.2221 8.59042C20.1911 8.57454 20.1258 8.54977 20.0447 8.57092C19.9593 8.59319 19.9115 8.65166 19.8898 8.69039L20.3255 8.93552C20.3038 8.97411 20.2562 9.03249 20.1709 9.05474C20.0899 9.07585 20.0247 9.05111 19.9938 9.03529C19.9626 9.01927 19.9421 9.00034 19.9329 8.99134C19.9223 8.98091 19.9147 8.97156 19.9103 8.96584C19.9016 8.95454 19.8958 8.94497 19.8934 8.94079C19.8918 8.93815 19.8905 8.93581 19.8895 8.93392C19.8889 8.93294 19.8884 8.93203 19.888 8.93119C19.8878 8.93077 19.8875 8.93036 19.8873 8.92996C19.8872 8.92976 19.8871 8.92956 19.887 8.92937C19.887 8.92927 19.8869 8.92918 19.8869 8.92908C19.8869 8.92904 19.8868 8.92899 19.8868 8.92894C19.8868 8.92892 19.8868 8.92888 19.8868 8.92887C19.8867 8.92883 19.8867 8.9288 20.1088 8.8139ZM11.9007 2.18695L19.946 9.00369L20.2693 8.62221L12.2239 1.80548L11.9007 2.18695ZM4.17744 9.00464L12.2239 2.18695L11.9007 1.80548L3.85421 8.62316L4.17744 9.00464ZM4.26582 21.1007V8.8139H3.76582V21.1007H4.26582ZM8.55621 20.8507H4.01582V21.3507H8.55621V20.8507ZM8.30621 13.8376V21.1007H8.80621V13.8376H8.30621ZM9.37012 12.8007C8.79058 12.8007 8.30621 13.257 8.30621 13.8376H8.80621C8.80621 13.549 9.05064 13.3007 9.37012 13.3007V12.8007ZM14.7545 12.8007H9.37012V13.3007H14.7545V12.8007ZM15.8184 13.8376C15.8184 13.257 15.334 12.8007 14.7545 12.8007V13.3007C15.0739 13.3007 15.3184 13.549 15.3184 13.8376H15.8184ZM15.8184 21.1007V13.8376H15.3184V21.1007H15.8184ZM20.1075 20.8507H15.5684V21.3507H20.1075V20.8507Z" fill="#727C8E"/>
</g>
</svg>
