<svg width="26" height="20" viewBox="0 0 26 20" fill="none" xmlns="http://www.w3.org/2000/svg">
<path fill-rule="evenodd" clip-rule="evenodd" d="M3.93482 1H22.0701C23.689 1 25.005 2.32092 25 3.93979V16.3296C25 17.9485 23.684 19.2644 22.0652 19.2644H3.93482C2.31595 19.2644 1 17.9485 1 16.3296V3.93482C1 2.31595 2.31595 1 3.93482 1ZM22.0701 17.9236C22.9491 17.9236 23.6642 17.2085 23.6642 16.3296H23.6592V3.93974C23.6592 3.06079 22.9441 2.3457 22.0652 2.3457H3.93481C3.05586 2.3457 2.34077 3.06079 2.34077 3.93974V16.3296C2.34077 17.2085 3.05586 17.9236 3.93481 17.9236H22.0701Z" fill="#727C8E"/>
<path d="M25 3.93979L24.8 3.93918V3.93979H25ZM23.6642 16.3296H23.8642V16.1296H23.6642V16.3296ZM23.6592 16.3296H23.4592V16.5296H23.6592V16.3296ZM22.0701 0.8H3.93482V1.2H22.0701V0.8ZM25.2 3.9404C25.2053 2.21092 23.7998 0.8 22.0701 0.8V1.2C23.5782 1.2 24.8046 2.43092 24.8 3.93918L25.2 3.9404ZM25.2 16.3296V3.93979H24.8V16.3296H25.2ZM22.0652 19.4644C23.7945 19.4644 25.2 18.0589 25.2 16.3296H24.8C24.8 17.838 23.5736 19.0644 22.0652 19.0644V19.4644ZM3.93482 19.4644H22.0652V19.0644H3.93482V19.4644ZM0.8 16.3296C0.8 18.0589 2.20549 19.4644 3.93482 19.4644V19.0644C2.42641 19.0644 1.2 17.838 1.2 16.3296H0.8ZM0.8 3.93482V16.3296H1.2V3.93482H0.8ZM3.93482 0.8C2.20549 0.8 0.8 2.2055 0.8 3.93482H1.2C1.2 2.42641 2.42641 1.2 3.93482 1.2V0.8ZM23.4642 16.3296C23.4642 17.0981 22.8386 17.7236 22.0701 17.7236V18.1236C23.0595 18.1236 23.8642 17.319 23.8642 16.3296H23.4642ZM23.6592 16.5296H23.6642V16.1296H23.6592V16.5296ZM23.4592 3.93974V16.3296H23.8592V3.93974H23.4592ZM22.0652 2.5457C22.8337 2.5457 23.4592 3.17124 23.4592 3.93974H23.8592C23.8592 2.95033 23.0546 2.1457 22.0652 2.1457V2.5457ZM3.93481 2.5457H22.0652V2.1457H3.93481V2.5457ZM2.54077 3.93974C2.54077 3.17124 3.16631 2.5457 3.93481 2.5457V2.1457C2.9454 2.1457 2.14077 2.95033 2.14077 3.93974H2.54077ZM2.54077 16.3296V3.93974H2.14077V16.3296H2.54077ZM3.93481 17.7236C3.16631 17.7236 2.54077 17.0981 2.54077 16.3296H2.14077C2.14077 17.319 2.9454 18.1236 3.93481 18.1236V17.7236ZM22.0701 17.7236H3.93481V18.1236H22.0701V17.7236Z" fill="#727C8E"/>
<path d="M16.1359 9.97828L22.0055 4.71447C22.2787 4.46618 22.3035 4.04408 22.0552 3.76599C21.8069 3.49287 21.3848 3.46804 21.1067 3.71633L13.0124 10.9814L11.4332 9.57108C11.4283 9.56611 11.4233 9.56114 11.4233 9.55618C11.3885 9.52142 11.3538 9.49162 11.3141 9.46183L4.88824 3.71136C4.61015 3.46307 4.18805 3.4879 3.93976 3.76599C3.69147 4.04408 3.71629 4.46618 3.99438 4.71447L9.93355 10.023L4.01921 15.5599C3.75106 15.8132 3.73616 16.2353 3.98942 16.5084C4.1235 16.6474 4.30227 16.7219 4.48104 16.7219C4.64491 16.7219 4.80878 16.6623 4.9379 16.5431L10.9416 10.9268L12.5704 12.3818C12.6995 12.496 12.8584 12.5506 13.0173 12.5506C13.1763 12.5506 13.3401 12.491 13.4643 12.3768L15.1378 10.8771L21.1067 16.5481C21.2358 16.6722 21.4047 16.7318 21.5686 16.7318C21.7473 16.7318 21.9211 16.6623 22.0552 16.5233C22.3085 16.2551 22.2985 15.8281 22.0304 15.5748L16.1359 9.97828Z" fill="#727C8E" stroke="#727C8E" stroke-width="0.4"/>
</svg>
