<svg width="24" height="23" viewBox="0 0 24 23" fill="none" xmlns="http://www.w3.org/2000/svg">
<mask id="mask0_208_9107" style="mask-type:luminance" maskUnits="userSpaceOnUse" x="0" y="0" width="24" height="23">
<rect width="24" height="23" fill="white"/>
</mask>
<g mask="url(#mask0_208_9107)">
<path fill-rule="evenodd" clip-rule="evenodd" d="M17.2733 13.6952C18.4551 14.1939 19.5595 14.8591 20.5528 15.6708C21.5105 16.8267 22.0339 18.2811 22.0321 19.7823C22.0393 20.2492 21.8588 20.6995 21.5311 21.0322C21.2034 21.3649 20.7559 21.5522 20.289 21.5522H2.85738C2.39039 21.5522 1.94292 21.3649 1.61523 21.0322C1.28755 20.6995 1.10706 20.2492 1.11422 19.7823C1.11248 18.282 1.63539 16.8284 2.59242 15.6731C3.5858 14.8616 4.69014 14.1963 5.87188 13.6975C6.74846 13.2979 7.59106 12.8277 8.39132 12.2914C7.08767 10.8134 6.31576 8.94196 6.19843 6.97472C6.1074 5.66373 6.32719 4.34978 6.83991 3.13978C7.41632 1.99627 8.70625 0.634277 11.5732 0.634277C14.4401 0.634277 15.73 1.99627 16.3076 3.13745C16.8196 4.34764 17.0389 5.66152 16.9479 6.9724C16.8297 8.93943 16.0579 10.8106 14.755 12.289C15.5551 12.825 16.3973 13.2952 17.2733 13.6952ZM20.2878 20.2448C20.4049 20.245 20.5171 20.1981 20.5993 20.1146C20.6799 20.0329 20.725 19.9226 20.7248 19.8078C20.736 18.6453 20.3493 17.514 19.6289 16.6016C18.7274 15.9019 17.7392 15.3218 16.6888 14.8758C15.686 14.4429 14.7358 13.8971 13.8567 13.2489L12.9747 12.4156L13.7405 11.4743C14.8526 10.2281 15.5207 8.64876 15.6406 6.98281C15.726 5.87409 15.5546 4.7606 15.1397 3.72891C14.4158 2.47296 13.0126 1.76977 11.5732 1.9416C10.1337 1.76946 8.73037 2.47273 8.00668 3.72891C7.5925 4.75878 7.42111 5.8702 7.50581 6.977C7.6269 8.64274 8.29579 10.2216 9.40818 11.4674L10.174 12.4087L9.29197 13.2431C8.413 13.8915 7.46282 14.4373 6.45992 14.87C5.40941 15.3165 4.42084 15.8965 3.51863 16.5957C2.807 17.5129 2.42139 18.6411 2.42276 19.802C2.42165 19.9187 2.46678 20.0311 2.54827 20.1146C2.62982 20.1975 2.74111 20.2443 2.85739 20.2448H20.2878Z" fill="#727C8E"/>
<path d="M20.5528 15.6708L20.8608 15.4155L20.836 15.3856L20.8058 15.361L20.5528 15.6708ZM17.2733 13.6952L17.1071 14.0592L17.1178 14.0637L17.2733 13.6952ZM22.0321 19.7823L21.6321 19.7818L21.6322 19.7884L22.0321 19.7823ZM20.289 21.5522L20.289 21.1522H20.289V21.5522ZM2.85738 21.5522V21.1522H2.85733L2.85738 21.5522ZM1.11422 19.7823L1.51423 19.7884L1.51422 19.7818L1.11422 19.7823ZM2.59242 15.6731L2.33936 15.3633L2.30921 15.3879L2.28437 15.4179L2.59242 15.6731ZM5.87188 13.6975L6.02749 14.0662L6.03778 14.0615L5.87188 13.6975ZM8.39132 12.2914L8.61401 12.6236L8.99348 12.3693L8.6913 12.0268L8.39132 12.2914ZM6.19843 6.97472L6.59774 6.95091L6.59747 6.94702L6.19843 6.97472ZM6.83991 3.13978L6.48272 2.95973L6.47677 2.97154L6.47161 2.98372L6.83991 3.13978ZM16.3076 3.13745L16.676 2.9816L16.6706 2.96902L16.6645 2.95682L16.3076 3.13745ZM16.9479 6.9724L16.5488 6.94469L16.5486 6.94841L16.9479 6.9724ZM14.755 12.289L14.4549 12.0246L14.153 12.3672L14.5324 12.6214L14.755 12.289ZM20.5993 20.1146L20.3145 19.8337L20.3141 19.8341L20.5993 20.1146ZM20.2878 20.2448L20.2885 19.8448H20.2878V20.2448ZM20.7248 19.8078L20.3248 19.8039L20.3248 19.8085L20.7248 19.8078ZM19.6289 16.6016L19.9428 16.3537L19.9126 16.3154L19.8742 16.2856L19.6289 16.6016ZM16.6888 14.8758L16.5302 15.2431L16.5324 15.244L16.6888 14.8758ZM13.8567 13.2489L13.582 13.5397L13.5997 13.5564L13.6193 13.5708L13.8567 13.2489ZM12.9747 12.4156L12.6644 12.1632L12.43 12.4513L12.7 12.7064L12.9747 12.4156ZM13.7405 11.4743L13.4421 11.208L13.436 11.2148L13.4302 11.2219L13.7405 11.4743ZM15.6406 6.98281L15.2417 6.95206L15.2416 6.95411L15.6406 6.98281ZM15.1397 3.72891L15.5108 3.57965L15.5003 3.55354L15.4862 3.52916L15.1397 3.72891ZM11.5732 1.9416L11.5257 2.33877L11.5731 2.34444L11.6206 2.33878L11.5732 1.9416ZM8.00668 3.72891L7.66008 3.52924L7.64605 3.55359L7.63557 3.57966L8.00668 3.72891ZM7.50581 6.977L7.90476 6.948L7.90465 6.94648L7.50581 6.977ZM9.40818 11.4674L9.71846 11.2149L9.71266 11.2078L9.70654 11.201L9.40818 11.4674ZM10.174 12.4087L10.4489 12.6993L10.7185 12.4442L10.4843 12.1562L10.174 12.4087ZM9.29197 13.2431L9.52943 13.565L9.5491 13.5504L9.56685 13.5337L9.29197 13.2431ZM6.45992 14.87L6.61638 15.2382L6.61837 15.2373L6.45992 14.87ZM3.51863 16.5957L3.2736 16.2796L3.23361 16.3106L3.2026 16.3505L3.51863 16.5957ZM2.42276 19.802L2.82277 19.8058L2.82276 19.8015L2.42276 19.802ZM2.54827 20.1146L2.26197 20.3939L2.26314 20.3951L2.54827 20.1146ZM2.85739 20.2448L2.85599 20.6448H2.85739V20.2448ZM20.8058 15.361C19.783 14.5252 18.6458 13.8402 17.4288 13.3266L17.1178 14.0637C18.2644 14.5476 19.3359 15.193 20.2997 15.9805L20.8058 15.361ZM22.4321 19.7828C22.434 18.1883 21.8781 16.6433 20.8608 15.4155L20.2448 15.926C21.143 17.01 21.6338 18.374 21.6321 19.7818L22.4321 19.7828ZM21.8161 21.3129C22.219 20.9038 22.4409 20.3502 22.4321 19.7762L21.6322 19.7884C21.6377 20.1482 21.4986 20.4952 21.2461 20.7515L21.8161 21.3129ZM20.2889 21.9522C20.863 21.9522 21.4132 21.7219 21.8161 21.3129L21.2461 20.7515C20.9936 21.0079 20.6488 21.1522 20.289 21.1522L20.2889 21.9522ZM2.85738 21.9522H20.289V21.1522H2.85738V21.9522ZM1.33024 21.3129C1.73312 21.7219 2.28328 21.9522 2.85743 21.9522L2.85733 21.1522C2.4975 21.1522 2.15271 21.0079 1.90022 20.7515L1.33024 21.3129ZM0.714266 19.7762C0.705462 20.3502 0.927367 20.9038 1.33024 21.3129L1.90022 20.7515C1.64773 20.4952 1.50865 20.1482 1.51417 19.7884L0.714266 19.7762ZM2.28437 15.4179C1.26781 16.6451 0.712373 18.1892 0.714219 19.7828L1.51422 19.7818C1.51259 18.3749 2.00297 17.0117 2.90046 15.9283L2.28437 15.4179ZM5.71632 13.329C4.49945 13.8426 3.36228 14.5277 2.33936 15.3633L2.84547 15.9829C3.80932 15.1955 4.88082 14.55 6.02743 14.066L5.71632 13.329ZM8.16863 11.9591C7.38641 12.4833 6.5628 12.943 5.70597 13.3335L6.03778 14.0615C6.93412 13.6529 7.79571 13.172 8.61401 12.6236L8.16863 11.9591ZM5.79914 6.99854C5.92178 9.05487 6.72865 11.0111 8.09135 12.556L8.6913 12.0268C7.44668 10.6158 6.70974 8.82905 6.59772 6.95091L5.79914 6.99854ZM6.47161 2.98372C5.93433 4.2517 5.704 5.62862 5.79939 7.00243L6.59747 6.94702C6.51081 5.69885 6.72006 4.44786 7.20821 3.29584L6.47161 2.98372ZM11.5732 0.234277C10.0739 0.234277 8.95739 0.591302 8.13148 1.12162C7.30697 1.65104 6.79638 2.33747 6.48272 2.95973L7.1971 3.31982C7.45984 2.79858 7.88243 2.23226 8.56372 1.7948C9.2436 1.35825 10.2055 1.03428 11.5732 1.03428V0.234277ZM16.6645 2.95682C16.3503 2.33597 15.8394 1.65029 15.0149 1.12125C14.1889 0.591308 13.0724 0.234277 11.5732 0.234277V1.03428C12.9408 1.03428 13.9028 1.35824 14.5829 1.79458C15.2644 2.23184 15.6873 2.79774 15.9507 3.31808L16.6645 2.95682ZM17.3469 7.00011C17.4423 5.62648 17.2125 4.24972 16.676 2.9816L15.9392 3.2933C16.4267 4.44557 16.6355 5.69655 16.5489 6.94469L17.3469 7.00011ZM15.0551 12.5535C16.4169 11.0082 17.2236 9.05239 17.3472 6.9964L16.5486 6.94841C16.4358 8.82647 15.6989 10.613 14.4549 12.0246L15.0551 12.5535ZM17.4394 13.3313C16.5831 12.9403 15.7598 12.4806 14.9776 11.9567L14.5324 12.6214C15.3504 13.1693 16.2115 13.6501 17.1072 14.059L17.4394 13.3313ZM20.3141 19.8341C20.3074 19.8409 20.2982 19.8448 20.2885 19.8448L20.2871 20.6448C20.5116 20.6452 20.7269 20.5552 20.8844 20.3951L20.3141 19.8341ZM20.3248 19.8085C20.3248 19.818 20.3211 19.827 20.3145 19.8337L20.8841 20.3955C21.0387 20.2387 21.1252 20.0273 21.1248 19.8071L20.3248 19.8085ZM19.315 16.8494C19.9788 17.6902 20.3351 18.7327 20.3248 19.8039L21.1247 19.8117C21.1368 18.5579 20.7198 17.3377 19.9428 16.3537L19.315 16.8494ZM16.5324 15.244C17.5511 15.6765 18.5094 16.239 19.3836 16.9175L19.8742 16.2856C18.9454 15.5647 17.9273 14.9671 16.8451 14.5076L16.5324 15.244ZM13.6193 13.5708C14.5229 14.2371 15.4995 14.7981 16.5302 15.2431L16.8473 14.5086C15.8724 14.0877 14.9487 13.5571 14.0941 12.9269L13.6193 13.5708ZM12.7 12.7064L13.582 13.5397L14.1314 12.9581L13.2494 12.1249L12.7 12.7064ZM13.4302 11.2219L12.6644 12.1632L13.285 12.6681L14.0508 11.7268L13.4302 11.2219ZM15.2416 6.95411C15.1281 8.53192 14.4953 10.0277 13.4421 11.208L14.039 11.7407C15.2099 10.4285 15.9133 8.7656 16.0395 7.01151L15.2416 6.95411ZM14.7686 3.87817C15.1606 4.85279 15.3225 5.90468 15.2417 6.95206L16.0394 7.01355C16.1296 5.8435 15.9487 4.66841 15.5108 3.57965L14.7686 3.87817ZM11.6206 2.33878C12.901 2.18593 14.1492 2.81144 14.7931 3.92866L15.4862 3.52916C14.6824 2.13448 13.1242 1.35361 11.5258 1.54442L11.6206 2.33878ZM8.35328 3.92859C8.997 2.81121 10.2453 2.18565 11.5257 2.33877L11.6207 1.54443C10.0221 1.35327 8.46373 2.13425 7.66008 3.52924L8.35328 3.92859ZM7.90465 6.94648C7.82464 5.90094 7.98654 4.85103 8.37779 3.87816L7.63557 3.57966C7.19847 4.66653 7.01759 5.83947 7.10698 7.00752L7.90465 6.94648ZM9.70654 11.201C8.65297 10.021 8.01944 8.52567 7.90476 6.948L7.10687 7.006C7.23435 8.75982 7.93861 10.4222 9.10982 11.7338L9.70654 11.201ZM10.4843 12.1562L9.71846 11.2149L9.0979 11.7198L9.86373 12.6611L10.4843 12.1562ZM9.56685 13.5337L10.4489 12.6993L9.89912 12.1181L9.01708 12.9525L9.56685 13.5337ZM6.61837 15.2373C7.64925 14.7926 8.62594 14.2315 9.52943 13.565L9.05451 12.9212C8.20007 13.5515 7.27639 14.0821 6.30147 14.5027L6.61837 15.2373ZM3.76366 16.9119C4.6387 16.2337 5.59751 15.6712 6.61638 15.2381L6.30346 14.5019C5.22132 14.9618 4.20297 15.5593 3.2736 16.2796L3.76366 16.9119ZM2.82276 19.8015C2.82149 18.7296 3.17756 17.6878 3.83466 16.841L3.2026 16.3505C2.43644 17.338 2.02128 18.5526 2.02277 19.8025L2.82276 19.8015ZM2.83457 19.8353C2.82689 19.8274 2.82264 19.8168 2.82275 19.8058L2.02278 19.7982C2.02066 20.0206 2.10666 20.2348 2.26197 20.3939L2.83457 19.8353ZM2.8588 19.8448C2.84924 19.8447 2.8401 19.8409 2.8334 19.8341L2.26314 20.3951C2.41954 20.5541 2.63298 20.644 2.85599 20.6448L2.8588 19.8448ZM20.2878 19.8448H2.85739V20.6448H20.2878V19.8448Z" fill="#727C8E"/>
</g>
</svg>
