<svg width="26" height="23" viewBox="0 0 26 23" fill="none" xmlns="http://www.w3.org/2000/svg">
<path fill-rule="evenodd" clip-rule="evenodd" d="M8.73366 14.5716H8.73256C8.34565 14.5725 8.03126 14.8764 8.03126 15.25C8.03126 15.6241 8.34675 15.9286 8.73439 15.9286H21.4844C21.8728 15.9286 22.1875 16.2323 22.1875 16.6071C22.1875 16.9819 21.8728 17.2857 21.4844 17.2857H8.73439C7.5713 17.2857 6.62501 16.3725 6.62501 15.25C6.62501 14.4147 7.14924 13.6956 7.8965 13.3822L5.35792 2.35714H1.70313C1.31476 2.35714 1 2.05338 1 1.67857C1 1.30377 1.31476 1 1.70313 1H5.92188C6.25147 1 6.53675 1.22089 6.60835 1.53137L7.11097 3.71429H24.2969C24.5176 3.71429 24.7254 3.8143 24.8583 3.9843C24.9911 4.1543 25.0336 4.37448 24.9729 4.57929L22.1604 14.0793C22.0742 14.3705 21.7983 14.5714 21.4844 14.5714H8.7364L8.73366 14.5716ZM20.954 13.2143L23.3647 5.07141H7.42336L9.29836 13.2143H20.954Z" fill="#727C8E"/>
<path d="M8.73256 14.5716V14.3216L8.73199 14.3216L8.73256 14.5716ZM8.73366 14.5716V14.8216H8.74163L8.7496 14.8211L8.73366 14.5716ZM7.8965 13.3822L7.99321 13.6127L8.18737 13.5312L8.14012 13.3261L7.8965 13.3822ZM5.35792 2.35714L5.60154 2.30105L5.5569 2.10714H5.35792V2.35714ZM6.60835 1.53137L6.85197 1.47528L6.85195 1.4752L6.60835 1.53137ZM7.11097 3.71429L6.86735 3.77038L6.91199 3.96429H7.11097V3.71429ZM24.8583 3.9843L25.0554 3.83043L25.0553 3.8303L24.8583 3.9843ZM24.9729 4.57929L25.2127 4.65026L25.2127 4.65023L24.9729 4.57929ZM22.1604 14.0793L22.4001 14.1503L22.4002 14.1503L22.1604 14.0793ZM8.7364 14.5714V14.3214H8.72842L8.72046 14.3219L8.7364 14.5714ZM23.3647 5.07141L23.6044 5.14238L23.6995 4.82141H23.3647V5.07141ZM20.954 13.2143V13.4643H21.1407L21.1937 13.2852L20.954 13.2143ZM7.42336 5.07141V4.82141H7.10925L7.17973 5.12751L7.42336 5.07141ZM9.29836 13.2143L9.05473 13.2704L9.09938 13.4643H9.29836V13.2143ZM8.73256 14.8216H8.73366V14.3216H8.73256V14.8216ZM8.28126 15.25C8.28126 15.0226 8.4756 14.8222 8.73313 14.8216L8.73199 14.3216C8.21571 14.3228 7.78126 14.7303 7.78126 15.25H8.28126ZM8.73439 15.6786C8.47637 15.6786 8.28126 15.4777 8.28126 15.25H7.78126C7.78126 15.7705 8.21713 16.1786 8.73439 16.1786V15.6786ZM21.4844 15.6786H8.73439V16.1786H21.4844V15.6786ZM22.4375 16.6071C22.4375 16.086 22.0024 15.6786 21.4844 15.6786V16.1786C21.7432 16.1786 21.9375 16.3787 21.9375 16.6071H22.4375ZM21.4844 17.5357C22.0024 17.5357 22.4375 17.1283 22.4375 16.6071H21.9375C21.9375 16.8356 21.7432 17.0357 21.4844 17.0357V17.5357ZM8.73439 17.5357H21.4844V17.0357H8.73439V17.5357ZM6.37501 15.25C6.37501 16.5188 7.44168 17.5357 8.73439 17.5357V17.0357C7.70092 17.0357 6.87501 16.2261 6.87501 15.25H6.37501ZM7.79978 13.1516C6.96716 13.5009 6.37501 14.3061 6.37501 15.25H6.87501C6.87501 14.5233 7.33132 13.8904 7.99321 13.6127L7.79978 13.1516ZM5.11429 2.41324L7.65287 13.4383L8.14012 13.3261L5.60154 2.30105L5.11429 2.41324ZM1.70313 2.60714H5.35792V2.10714H1.70313V2.60714ZM0.75 1.67857C0.75 2.19975 1.18514 2.60714 1.70313 2.60714V2.10714C1.44438 2.10714 1.25 1.907 1.25 1.67857H0.75ZM1.70313 0.75C1.18514 0.75 0.75 1.1574 0.75 1.67857H1.25C1.25 1.45014 1.44438 1.25 1.70313 1.25V0.75ZM5.92188 0.75H1.70313V1.25H5.92188V0.75ZM6.85195 1.4752C6.75294 1.04578 6.36219 0.75 5.92188 0.75V1.25C6.14076 1.25 6.32057 1.396 6.36474 1.58755L6.85195 1.4752ZM7.3546 3.65819L6.85197 1.47528L6.36472 1.58747L6.86735 3.77038L7.3546 3.65819ZM24.2969 3.46429H7.11097V3.96429H24.2969V3.46429ZM25.0553 3.8303C24.8738 3.5982 24.5925 3.46429 24.2969 3.46429V3.96429C24.4426 3.96429 24.577 4.03041 24.6614 4.1383L25.0553 3.8303ZM25.2127 4.65023C25.2965 4.367 25.2372 4.06326 25.0554 3.83043L24.6613 4.13817C24.745 4.24534 24.7706 4.38196 24.7332 4.50835L25.2127 4.65023ZM22.4002 14.1503L25.2127 4.65026L24.7332 4.50832L21.9207 14.0083L22.4002 14.1503ZM21.4844 14.8214C21.9039 14.8214 22.281 14.5525 22.4001 14.1503L21.9207 14.0083C21.8673 14.1885 21.6926 14.3214 21.4844 14.3214V14.8214ZM8.7364 14.8214H21.4844V14.3214H8.7364V14.8214ZM8.7496 14.8211L8.75234 14.8209L8.72046 14.3219L8.71772 14.3221L8.7496 14.8211ZM23.125 5.00044L20.7142 13.1433L21.1937 13.2852L23.6044 5.14238L23.125 5.00044ZM7.42336 5.32141H23.3647V4.82141H7.42336V5.32141ZM9.54198 13.1582L7.66698 5.01531L7.17973 5.12751L9.05473 13.2704L9.54198 13.1582ZM20.954 12.9643H9.29836V13.4643H20.954V12.9643Z" fill="#727C8E"/>
<path fill-rule="evenodd" clip-rule="evenodd" d="M10 22.1715C8.81849 22.1715 7.85718 21.2101 7.85718 20.0286C7.85718 18.8471 8.81849 17.8857 10 17.8857C11.1816 17.8857 12.1429 18.8471 12.1429 20.0286C12.1429 21.2101 11.1816 22.1715 10 22.1715ZM10.7143 20.0286C10.7143 19.6348 10.3938 19.3143 10 19.3143C9.60625 19.3143 9.28575 19.6348 9.28575 20.0286C9.28575 20.4224 9.60625 20.7429 10 20.7429C10.3938 20.7429 10.7143 20.4224 10.7143 20.0286Z" fill="#727C8E"/>
<path fill-rule="evenodd" clip-rule="evenodd" d="M20.2857 22.1715C19.1041 22.1715 18.1428 21.2101 18.1428 20.0286C18.1428 18.8471 19.1041 17.8857 20.2857 17.8857C21.4672 17.8857 22.4285 18.8471 22.4285 20.0286C22.4285 21.2101 21.4672 22.1715 20.2857 22.1715ZM21 20.0286C21 19.6348 20.6795 19.3143 20.2857 19.3143C19.8919 19.3143 19.5714 19.6348 19.5714 20.0286C19.5714 20.4224 19.8919 20.7429 20.2857 20.7429C20.6795 20.7429 21 20.4224 21 20.0286Z" fill="#727C8E"/>
</svg>
