<svg width="24" height="20" viewBox="0 0 24 20" fill="none" xmlns="http://www.w3.org/2000/svg">
<mask id="mask0_436_8265" style="mask-type:luminance" maskUnits="userSpaceOnUse" x="0" y="0" width="24" height="20">
<rect width="24" height="19.7647" fill="white"/>
</mask>
<g mask="url(#mask0_436_8265)">
<path fill-rule="evenodd" clip-rule="evenodd" d="M23.5475 9.10842V5.60204C23.5462 4.46009 22.5871 3.53467 21.4036 3.53344H18.5055L14.7458 -0.0955429C14.6118 -0.22506 14.43 -0.297852 14.2404 -0.297852C14.0508 -0.297852 13.869 -0.22506 13.7351 -0.0955429L12.2335 1.35337L10.7318 -0.0955429C10.5979 -0.22506 10.4161 -0.297852 10.2265 -0.297852C10.0369 -0.297852 9.85507 -0.22506 9.72115 -0.0955429L5.96368 3.53344H2.14383C0.960353 3.53467 0.00127324 4.46009 0 5.60204V17.0128C0.00127324 18.1548 0.960353 19.0802 2.14383 19.0814H21.4036C22.5871 19.0802 23.5462 18.1548 23.5475 17.0128V13.5064C24.0592 13.2834 24.3885 12.7922 24.3895 12.2503V10.3668C24.3894 9.8241 24.06 9.33179 23.5475 9.10842ZM21.4036 17.7029H19.7241C19.8054 17.4813 19.8469 17.248 19.8466 17.0129V13.6281H22.1175V17.0129C22.1175 17.3935 21.7981 17.7022 21.4036 17.7029ZM1.42883 17.0129C1.42883 17.3939 1.74895 17.7028 2.14383 17.7028H17.7039C18.0988 17.7028 18.4189 17.3939 18.4189 17.0129V13.628H15.7322C14.9436 13.6268 14.3046 13.0102 14.3034 12.2493V10.3657C14.3046 9.6048 14.9436 8.98826 15.7322 8.98703H18.4189V5.60214C18.4189 5.22112 18.0988 4.91223 17.7039 4.91223H2.14383C1.74895 4.91223 1.42883 5.22112 1.42883 5.60214V17.0129ZM22.1186 5.60214V8.98703H19.8477V5.60214C19.8481 5.36711 19.8066 5.13377 19.7253 4.91223H21.4036C21.7985 4.91223 22.1186 5.22112 22.1186 5.60214ZM15.7322 10.3657V12.2493H22.9595V10.3657H15.7322ZM16.4853 3.53355H11.9955L14.2398 1.36798L16.4853 3.53355ZM7.98508 3.53345H9.97528L11.2239 2.32639L10.2294 1.36676L7.98508 3.53345Z" fill="#5F84FF"/>
</g>
</svg>
