<svg width="24" height="19" viewBox="0 0 24 19" fill="none" xmlns="http://www.w3.org/2000/svg">
<path fill-rule="evenodd" clip-rule="evenodd" d="M19.4214 1.55556H16.8573V3.11112H18.5806L22.4516 9.07671V14.9412H21.7668C21.4119 13.6584 20.2491 12.7707 18.9238 12.7707C17.5985 12.7707 16.4357 13.6584 16.0808 14.9412H15.3089V0H0V11.2156H13.7605V14.9412H7.96258C7.60762 13.6584 6.44488 12.7707 5.11955 12.7707C3.79422 12.7707 2.63148 13.6584 2.27652 14.9412H1.54839V12.7704H0V16.496H2.28C2.63317 17.7785 3.79493 18.6667 5.11955 18.6667C6.44417 18.6667 7.60593 17.7785 7.9591 16.496H16.0843C16.4374 17.7785 17.5992 18.6667 18.9238 18.6667C20.2484 18.6667 21.4102 17.7785 21.7634 16.496H24V8.61354L19.4214 1.55556ZM5.11974 17.1111C4.35528 17.1047 3.74015 16.4781 3.74441 15.71C3.74867 14.942 4.37071 14.3223 5.13519 14.3244C5.89967 14.3265 6.51829 14.9497 6.51832 15.7178C6.51469 16.4903 5.88878 17.1139 5.11974 17.1111ZM1.54839 9.6601H6.88026V6.38525H1.54839V9.6601ZM6.88026 4.82955H1.54839V1.55548H6.88026V4.82955ZM8.42865 9.66088H13.7605V6.38525H8.42865V9.66088ZM13.7605 4.83033H8.42865V1.55548H13.7605V4.83033ZM17.5487 15.7095C17.5441 16.4776 18.1591 17.1045 18.9236 17.1111C19.6925 17.1142 20.3185 16.491 20.3226 15.7185C20.323 14.9504 19.7046 14.3269 18.9401 14.3244C18.1756 14.3219 17.5532 14.9415 17.5487 15.7095Z" fill="#5F84FF"/>
</svg>
