<svg width="24" height="23" viewBox="0 0 24 23" fill="none" xmlns="http://www.w3.org/2000/svg">
<path fill-rule="evenodd" clip-rule="evenodd" d="M22.5 6.02267H17.754C18.0945 5.78814 18.387 5.55512 18.591 5.34631C19.8 4.1192 19.8 2.12192 18.591 0.894805C17.4165 -0.297509 15.3675 -0.299027 14.1915 0.894805C13.542 1.553 11.8155 4.23268 12.054 6.02267H11.946C12.183 4.23268 10.458 1.553 9.8085 0.894805C8.6325 -0.299027 6.5835 -0.297509 5.409 0.894805C4.2 2.12192 4.2 4.1192 5.4075 5.34631C5.613 5.55512 5.9055 5.78814 6.246 6.02267H1.5C0.6735 6.02267 0 6.70205 0 7.53576V11.3185C0 11.7361 0.336 12.075 0.75 12.075H1.5V21.1536C1.5 21.9873 2.1735 22.6667 3 22.6667H21C21.8265 22.6667 22.5 21.9873 22.5 21.1536V12.075H23.25C23.664 12.075 24 11.7361 24 11.3185V7.53576C24 6.70205 23.3265 6.02267 22.5 6.02267ZM6.4725 1.96159C6.777 1.65292 7.1805 1.48346 7.6095 1.48346C8.037 1.48346 8.4405 1.65292 8.745 1.96159C9.756 2.98747 10.761 5.60815 10.4115 5.9728C10.4115 5.9728 10.3485 6.02273 10.134 6.02273C9.0975 6.02273 7.119 4.93633 6.4725 4.27965C5.844 3.64113 5.844 2.60012 6.4725 1.96159ZM3 21.1536H11.25V12.0751H3V21.1536ZM11.25 10.5619H1.5V7.5357H10.134H11.25V10.5619ZM17.5275 1.96155C16.92 1.34724 15.864 1.34572 15.255 1.96155C14.244 2.98743 13.239 5.60809 13.587 5.97275C13.5885 5.97427 13.6515 6.02268 13.866 6.02268C14.9025 6.02268 16.881 4.93629 17.5275 4.2796C18.156 3.64107 18.156 2.60007 17.5275 1.96155ZM21 21.1536H12.75V12.0751H21V21.1536ZM12.75 10.5619H22.5V7.5357H13.866H12.75V10.5619Z" fill="#5F84FF"/>
</svg>
