<svg width="24" height="23" viewBox="0 0 24 23" fill="none" xmlns="http://www.w3.org/2000/svg">
<path d="M23.7447 8.4705L12.3684 0.120738C12.149 -0.0402459 11.851 -0.0402459 11.6317 0.120738L0.255261 8.4705C-0.0226135 8.67448 -0.0829884 9.06561 0.120496 9.34416C0.32398 9.62271 0.714213 9.68314 0.992041 9.47925L12 1.39982L23.008 9.47921C23.119 9.56073 23.248 9.59997 23.3758 9.59997C23.5678 9.59997 23.7573 9.51139 23.8795 9.34411C24.083 9.06561 24.0226 8.67448 23.7447 8.4705Z" fill="#5F84FF"/>
<path d="M21.7599 9.6001C21.4065 9.6001 21.1199 9.90303 21.1199 10.2767V21.0468H16.0001V15.1678C16.0001 13.3022 14.5645 11.7844 12.8 11.7844C11.0354 11.7844 9.59977 13.3023 9.59977 15.1678V21.0468H4.47993V10.2768C4.47993 9.90308 4.19334 9.60015 3.83994 9.60015C3.48653 9.60015 3.19995 9.90308 3.19995 10.2768V21.7235C3.19995 22.0972 3.48653 22.4001 3.83994 22.4001H10.2398C10.5763 22.4001 10.8518 22.1252 10.8772 21.7762C10.8788 21.7604 10.8797 21.7431 10.8797 21.7235V15.1678C10.8797 14.0484 11.7411 13.1377 12.8 13.1377C13.8588 13.1377 14.7202 14.0485 14.7202 15.1678V21.7235C14.7202 21.743 14.7211 21.7599 14.7227 21.7756C14.7479 22.1248 15.0234 22.4001 15.3601 22.4001H21.76C22.1134 22.4001 22.4 22.0972 22.4 21.7235V10.2768C22.3999 9.90303 22.1134 9.6001 21.7599 9.6001Z" fill="#5F84FF"/>
</svg>
