<svg width="21" height="24" viewBox="0 0 21 24" fill="none" xmlns="http://www.w3.org/2000/svg">
<path fill-rule="evenodd" clip-rule="evenodd" d="M18.1513 16.8V10.2C18.1513 6.48 15.6101 3.48 12.1008 2.64V1.8C12.1008 0.839996 11.2538 0 10.2857 0C9.31765 0 8.47059 0.839996 8.47059 1.8V2.64C4.96134 3.48 2.42017 6.48 2.42017 10.2V16.8L0 19.2V20.4H20.5714V19.2L18.1513 16.8ZM10.2857 24C11.6168 24 12.7059 22.92 12.7059 21.6H7.86557C7.86557 22.92 8.95465 24 10.2857 24ZM4.84033 18.0001H15.7311V10.2001C15.7311 7.20011 13.3109 4.80011 10.2857 4.80011C7.2605 4.80011 4.84033 7.20011 4.84033 10.2001V18.0001Z" fill="#5F84FF"/>
</svg>
