<svg width="24" height="24" viewBox="0 0 24 24" fill="none" xmlns="http://www.w3.org/2000/svg">
<path fill-rule="evenodd" clip-rule="evenodd" d="M16.2812 15.4287C16.632 15.4287 16.9737 15.5266 17.0567 15.7359L18.8388 20.1251C18.8407 20.1308 18.8426 20.1362 18.8444 20.1414C18.8514 20.1615 18.8572 20.1782 18.8572 20.1948C18.8572 20.4113 18.4233 20.5716 18.1001 20.5716C17.8969 20.5716 17.74 20.5229 17.694 20.3902L17.3429 19.4621H15.2284L14.8778 20.3902C14.8315 20.5229 14.6746 20.5716 14.4715 20.5716C14.1483 20.5716 13.7144 20.4182 13.7144 20.1948C13.7144 20.181 13.7233 20.1537 13.7324 20.126L13.7328 20.1251L15.5148 15.7359C15.5979 15.5266 15.9395 15.4287 16.2812 15.4287ZM16.2809 16.6081L15.4778 18.7502H17.0845L16.2809 16.6081Z" fill="#5F84FF"/>
<path fill-rule="evenodd" clip-rule="evenodd" d="M21.4142 9.79065H14.2092V6.71338L16.5507 5.04089C16.7355 4.90887 16.8452 4.69592 16.8452 4.46887C16.8452 4.24164 16.7355 4.02869 16.5507 3.89667L14.181 2.20404C13.9958 0.958557 12.9194 0 11.6234 0H2.586C1.15997 0 0 1.15997 0 2.586V11.6235C0 13.0494 1.15997 14.2094 2.586 14.2094H9.79083V17.2866L7.44928 18.9591C7.26453 19.0911 7.15485 19.3043 7.15485 19.5313C7.15485 19.7584 7.26453 19.9715 7.44928 20.1033L9.81903 21.796C10.0042 23.0414 11.0806 24 12.3766 24H21.4142C22.84 24 24 22.8398 24 21.414V12.3766C24 10.9506 22.84 9.79065 21.4142 9.79065ZM2.586 12.8031C1.93542 12.8031 1.40625 12.2739 1.40625 11.6234V2.58582C1.40625 1.93542 1.93542 1.40625 2.586 1.40625H11.6234C12.2737 1.40625 12.8029 1.93542 12.8029 2.58582C12.8029 2.81305 12.9126 3.02618 13.0974 3.15802L14.9323 4.46869L13.0974 5.77936C12.9126 5.91138 12.8029 6.12451 12.8029 6.35156V9.79065H12.3766C10.9508 9.79065 9.79083 10.9506 9.79083 12.3765V12.8031H2.586ZM21.4142 22.5937C22.0646 22.5937 22.5938 22.0645 22.5938 21.4139V12.3766C22.5938 11.726 22.0646 11.1968 21.4142 11.1968H13.5079H13.506H13.5042H12.3766C11.7263 11.1968 11.1971 11.726 11.1971 12.3766V17.6484C11.1971 17.8754 11.0874 18.0886 10.9026 18.2206L9.06775 19.5312L10.9026 20.8419C11.0874 20.9738 11.1971 21.1869 11.1971 21.4139C11.1971 22.0645 11.7263 22.5937 12.3766 22.5937H21.4142Z" fill="#5F84FF"/>
<path fill-rule="evenodd" clip-rule="evenodd" d="M10.2857 6.76968C10.2857 6.97258 10.1071 7.13713 9.88699 7.13713H9.33729C9.24945 7.9129 8.8863 8.61403 8.3401 9.15705C8.79293 9.4071 9.32182 9.55096 9.88699 9.55096C10.1071 9.55096 10.2857 9.71535 10.2857 9.91824C10.2857 10.1211 10.1071 10.2857 9.88699 10.2857C9.08003 10.2857 8.33144 10.0533 7.71416 9.658C7.09706 10.0533 6.34848 10.2857 5.54151 10.2857C5.32145 10.2857 5.14282 10.1211 5.14282 9.91824C5.14282 9.71535 5.32145 9.55096 5.54151 9.55096C6.10668 9.55096 6.63557 9.40677 7.0884 9.15705C6.54221 8.61403 6.17905 7.9129 6.09121 7.13713H5.54151C5.32145 7.13713 5.14282 6.97258 5.14282 6.76968C5.14282 6.5668 5.32145 6.40224 5.54151 6.40224H7.31547V5.51027C7.31547 5.30737 7.4941 5.14282 7.71416 5.14282C7.93441 5.14282 8.11304 5.30737 8.11304 5.51027V6.40224H9.88699C10.1071 6.40224 10.2857 6.5668 10.2857 6.76968ZM6.89487 7.13708C6.9816 7.73914 7.27791 8.28081 7.71417 8.69796C8.15061 8.28081 8.44691 7.73914 8.53365 7.13708H6.89487Z" fill="#5F84FF"/>
</svg>
